<?xml version="1.0" encoding="utf-8"?>
<!-- Generator: Adobe Illustrator 26.1.0, SVG Export Plug-In . SVG Version: 6.00 Build 0)  -->
<svg version="1.1" id="Calque_1" xmlns="http://www.w3.org/2000/svg" xmlns:xlink="http://www.w3.org/1999/xlink" x="0px" y="0px"
	 viewBox="0 0 595.28 992.13" style="enable-background:new 0 0 595.28 992.13;" xml:space="preserve">
<style type="text/css">
	.st0{fill:#EDBD97;}
	.st1{fill:#CC7A3E;}
	.st2{fill:#CC793E;}
</style>
<g>
	<g>
		<g>
			<path class="st0" d="M467.64,297.34c15.25,7.72,23.63,20.5,23.61,35.98c-0.04,25.71-19.79,44.35-46.97,44.31
				c-27.14-0.04-44.66-16.02-44.62-40.72c0.03-20.43,10.41-32.62,27.77-32.59l1.88,0l0.01-4.51l-21.82-0.03l-1.1,1.77
				c-4.2,6.68-11.21,17.87-11.24,35.35c-0.04,30.1,21.01,51.15,51.2,51.19c30.01,0.04,51-20.95,51.04-51.05
				c0.03-19.34-9.83-34.85-27.77-43.68l-1.68-0.82l-1.98,3.94L467.64,297.34z"/>
			<path class="st0" d="M486.36,199.61l-88.08,36.51l-0.02,17.27l4.51,0.01l0-1.88c0.01-3.92,0.32-6.66,4.35-8.47l78.58,31.61
				c5.44,2.16,5.5,7.55,5.5,7.79l0,1.88l4.51,0.01l0.03-19.84l-4.51-0.01l0,1.88c0,1.16-0.41,3.26-1.49,3.99
				c-0.59,0.41-1.48,0.37-2.63-0.08l-19.49-7.88l-4.51-1.82l-49.92-20.08l49.98-20.59l4.51-1.85l19.96-8.26
				c1.36-0.56,1.91-0.2,2.09-0.07c1.02,0.69,1.56,2.84,1.55,4.13l0,1.88l4.51,0.01l0.04-25.49l-4.51-0.01l0,1.88
				C491.31,193.05,491.07,197.67,486.36,199.61"/>
			<g>
				<path class="st0" d="M403.28,175.75l0-1.88c0-0.58,0.15-5.7,4.82-5.69l78.84,0.11c4.68,0.01,4.8,5.13,4.8,5.71l0,1.88l4.51,0.01
					l0.03-25.04l-4.51-0.01l0,1.88c0,0.58-0.14,5.7-4.82,5.69l-83.65-0.12l0.05-35.16c0.02-13.98,5.6-14.62,16.29-14.61l1.88,0
					l0.01-4.51l-22.66-0.03l-0.1,71.76L403.28,175.75z"/>
				<path class="st0" d="M429.05,131.95c10.89,0.02,15.74,1.22,16.24,12.7c-0.29,4.27-2.05,7.49-4.97,9.06l-1.92,1.04l2.73,3.65
					l1.43-0.8c3.91-2.16,6.35-6.02,7.04-11.01l0.2,0c0.02-13.98,5.6-14.62,16.29-14.61l1.88,0l0.01-4.51l-40.8-0.06l-0.01,4.51
					l1.88,0V131.95z"/>
			</g>
			<g>
				<path class="st0" d="M473.5,16.02l1.88,0c10.69,0.01,16.26,0.67,16.24,14.65l-0.06,40.07l-88.46-0.12l0.05-35.16
					c0.02-13.98,5.6-14.62,16.29-14.61l1.88,0l0.01-4.51l-22.66-0.03l-0.1,71.75l4.51,0.01l0-1.88c0-0.58,0.15-5.7,4.82-5.69
					l78.84,0.11c4.68,0.01,4.8,5.13,4.8,5.71l0,1.88l4.51,0.01l0.11-76.65l-22.66-0.03L473.5,16.02L473.5,16.02z"/>
				<path class="st0" d="M467.71,39.74l-40.81-0.06l-0.01,4.51l1.88,0c10.89,0.02,15.74,1.22,16.24,12.7
					c-0.29,4.27-2.05,7.49-4.97,9.06L438.12,67l2.73,3.65l1.43-0.8c3.91-2.16,6.35-6.02,7.04-11.01l0.2,0
					c0.02-13.98,5.6-14.62,16.28-14.61l1.88,0l0.01-4.5L467.71,39.74z"/>
			</g>
			<path class="st0" d="M484.02,911.66c-18.7,21.45-30.51,35.03-43.47,50.11l-32.64-33.98c-1.17-1.31-2.61-3.2-3.81-5.71
				c-1.68-3.48-2.19-6.66-2.36-8.74l0-1.63l-3.99-0.01l-0.03,19.44l3.99,0.01l0-1.63c0-0.05,0-0.12,0.18-0.2
				c0.5-0.2,1.91-0.09,3.69,1.78l34.47,36.04l-33.34-0.05c-4.98-0.01-5.03-5.71-5.03-5.95l0-1.63l-3.99-0.01L397.66,984l3.99,0.01
				l0-1.63c0-0.24,0.07-5.94,5.05-5.93l78.47,0.11c4.98,0.01,5.03,5.71,5.03,5.95l0,1.63l3.99,0.01l0.03-24.49l-4-0.01l0,1.63
				c0,0.24-0.07,5.94-5.05,5.93l-36.73-0.05l38.03-44.18c5.61-6.63,7.81-12.88,7.82-22.27l0-1.63l-3.99-0.01c0,0.54,0,1.09,0,1.63
				C488.38,904.31,486.87,908.39,484.02,911.66z"/>
			<path class="st0" d="M490.43,796.2c0,0.93-0.26,5.69-5.11,7.7l-88.03,36.46l-0.02,16.85l4.01,0.01l0-1.63
				c0.01-4.04,0.34-6.87,4.61-8.75l78.76,31.66c5.61,2.22,5.66,7.79,5.66,8.01l0,1.63l4.01,0.01l0.03-19.33l-4.01-0.01l0,1.63
				c0,1.2-0.43,3.41-1.6,4.2c-0.66,0.45-1.63,0.42-2.87-0.06l-19.67-7.95l-4.01-1.61l-50.89-20.45l50.95-20.97l4.01-1.64l20.14-8.32
				c1.49-0.61,2.12-0.19,2.32-0.05c1.15,0.77,1.68,3.04,1.67,4.35l0,1.63l4.01,0.01l0.03-24.98l-4.01-0.01l0,1.62L490.43,796.2z"/>
			<path class="st0" d="M401.48,710.6l0-1.63c0-0.24,0.07-5.96,5.08-5.95l37.38,0.05l-0.08,59.89l-37.38-0.05
				c-5.01-0.01-5.06-5.73-5.06-5.97l0-1.63l-4.01-0.01l-0.03,24.56l4.01,0.01l0-1.63c0-0.24,0.07-5.96,5.08-5.95l78.93,0.11
				c5.01,0.01,5.06,5.73,5.06,5.97l0,1.63l4.01,0.01l0.03-24.57l-4.01-0.01l0,1.63c0,0.24-0.07,5.96-5.08,5.95l-37.53-0.05
				l0.08-59.89l37.53,0.05c5.01,0.01,5.06,5.73,5.06,5.97l0,1.63l4.01,0.01l0.03-24.57l-4.01-0.01l0,1.63
				c0,0.24-0.07,5.96-5.08,5.95l-78.93-0.11c-5.01-0.01-5.06-5.73-5.06-5.97l0-1.63l-4.01-0.01l-0.03,24.58L401.48,710.6z"/>
			<path class="st0" d="M397.71,530.03l4.09,0.01l0,1.64c0,0.23,0.05,5.81,5.75,8.04l65.41,25.85c-0.31,1.39-0.57,2.79-0.81,4.18
				l-65.84-26.1c-1.27-0.49-2.25-0.51-2.92-0.06c-1.18,0.79-1.62,3.01-1.63,4.21l0,1.65l-4.09-0.01l0.03-19.4H397.71z"/>
			<path class="st0" d="M476.73,571.41c0.08-1.53,0.22-2.98,0.41-4.35l19.38,7.66l0,3.1l-7.24,2.95l-5.93,2.43l-6.45,2.63
				c-0.24-2.77-0.35-5.57-0.35-8.4c0-0.51,0-1.01,0.01-1.51l5.7-2.32L476.73,571.41z"/>
			<g>
				<path class="st1" d="M558.92,525.53c1.72,0,3.71,0.44,5.96,1.31c3.11,0.95,5.48,3.59,7.12,7.91c1.03,2.76,1.54,5.36,1.54,7.77
					c-0.01,7.25-2.05,14.59-6.11,22c-2.78,4.91-6.22,9.33-10.33,13.26c-4.11,3.91-7.8,7.19-11.09,9.82
					c-3.28,2.64-7.37,5.56-12.25,8.78c-4.88,3.23-8.15,5.5-9.8,6.79l-0.12,0.9c12.08,6.59,19.38,9.88,21.88,9.88
					c1.3,0,1.94-0.57,1.94-1.68c0-1.12-1.18-2.64-3.55-4.54c-2.38-1.89-3.52-3.19-3.42-3.89c0.52-0.51,1.64,0.05,3.37,1.68
					c0.17,0.18,0.63,0.48,1.36,0.91c0.74,0.43,1.32,0.8,1.75,1.1c0.43,0.31,1,0.71,1.68,1.23c0.69,0.52,1.25,0.99,1.68,1.42
					c0.43,0.43,0.87,0.9,1.3,1.42c0.87,1.04,1.3,1.94,1.3,2.72c0,0.78-0.15,1.86-0.46,3.24c-0.3,1.38-0.88,2.07-1.74,2.07
					c-3.89-0.01-12.91-3.56-27.07-10.66c-0.26,2.85-1.31,4.27-3.12,4.27c-0.35,0-0.78-0.04-1.3-0.13c-1.46-0.61-2.2-1.7-2.2-3.3
					c0-1.6,0.39-2.88,1.17-3.83c-1.38-0.68-2.93-1.51-4.66-2.46c-6.04-3.38-9.88-5.07-11.53-5.08c-0.42,0-0.86,0.05-1.29,0.13
					c-2.41-0.35-5.59-2.45-9.52-6.29c-3.83-3.76-5.79-7.18-5.87-10.23l6.11-2.54c2.86,5.72,12.33,13.22,28.43,22.46
					c0.43-1.04,0.65-2.05,0.65-3.04c0-0.99-0.05-1.84-0.14-2.53c-0.93-8.8-3-17.42-6.18-25.84c-3.19-8.42-7.19-14.97-12.02-19.64
					c-2.93-3.02-6.03-4.54-9.31-4.54c-7.71-0.01-12.35,6.25-13.93,18.79c-0.18,1.43-0.33,2.95-0.42,4.55
					c-0.11,1.5-0.16,3.07-0.19,4.71c-0.01,0.52-0.01,1.05-0.01,1.58c0,2.96,0.11,5.9,0.36,8.79c0.64,8.15,2.24,16,4.78,23.59
					c1.53,4.32,3.48,8.12,5.87,11.41l-8.57-3.42c-0.58-1.02-1.15-2.08-1.72-3.19c-3.5-7.52-5.54-16.2-6.12-25.99
					c-0.13-2-0.17-4.04-0.17-6.14c0-1.46,0.04-2.91,0.13-4.37c0.15-2.96,0.48-5.92,0.96-8.86c0.23-1.46,0.5-2.92,0.83-4.38
					c0.36-1.64,0.76-3.29,1.23-4.92c1.74-5.01,4.2-8.8,7.4-11.39c3.2-2.59,6.45-3.87,9.73-3.87c5.01,0.01,9.44,2,13.27,5.97
					c3.84,3.98,6.79,8.43,8.85,13.35c4.73,10.97,7.36,23.5,7.86,37.57c1.38-1.13,3.65-2.93,6.8-5.43c3.16-2.5,5.52-4.4,7.07-5.68
					c1.56-1.3,3.73-3.16,6.55-5.63c2.81-2.46,4.98-4.52,6.49-6.2s3.34-3.82,5.46-6.4c2.11-2.59,3.78-5.04,4.99-7.37
					c4.33-8.11,6.5-15.19,6.51-21.23l-0.38-4.4c-0.52-2.93-1.7-5.26-3.55-6.99c-1.87-1.72-3.92-2.6-6.16-2.6
					c-0.87,0-1.79,0.11-2.78,0.33c-1,0.21-1.49-0.07-1.49-0.85c0.09-0.87,0.71-1.44,1.88-1.75
					C555.75,525.69,557.19,525.53,558.92,525.53"/>
				<path class="st1" d="M497.73,627.34c-2.35-1.15-4.52-2.91-6.52-5.27c-0.62-0.73-1.21-1.48-1.76-2.27l-8.57-3.42
					c3.56,6.32,7.24,10.79,11.04,13.38c0.02,0.01,0.04,0.03,0.06,0.04c2.44,1.65,5.36,2.45,8.31,2.45l1.78,0
					c2.6,0,5.01-1.15,7.25-3.48c2.25-2.33,3.6-4.84,4.03-7.5c0.17-0.87,0.06-1.42-0.33-1.68c-0.38-0.26-0.75-0.15-1.1,0.33
					c-0.35,0.47-0.87,1.42-1.56,2.85c-0.69,1.42-1.29,2.52-1.81,3.3s-1.28,1.45-2.27,2.01c-0.99,0.56-1.84,0.84-2.53,0.84
					c-0.68,0-1.24-0.04-1.68-0.13C500.56,628.49,499.12,628.02,497.73,627.34"/>
			</g>
			<path class="st0" d="M471.12,582.02c0,2,0.05,3.95,0.17,5.86l-31.06,12.67l38.67,15.22l8.33,3.27l9.22,3.63l0,3.09l-1.18,0.49
				l-5.64,2.3l-82.82,33.77c-4.94,2.01-5.2,7.04-5.2,8.02l0,1.64l-4.09-0.01l0.03-25.06l4.09,0.01l0,1.64c0,1.22,0.5,3.35,1.6,4.07
				c0.21,0.15,0.88,0.58,2.46-0.06l76.5-31.17l-47.27-18.76l-28.05,11.49c-4.95,2.01-5.21,7.04-5.21,8.02l0,1.64l-4.09-0.01
				l0.03-25.05l4.09,0.01l0,1.64c0,1.21,0.5,3.35,1.6,4.07c0.21,0.14,0.88,0.57,2.46-0.07l65.48-26.55
				C471.16,579.24,471.12,580.63,471.12,582.02"/>
			<path class="st1" d="M549.82,564.16c0,1.37-0.41,2.85-1.25,4.44c-0.83,1.59-2,2.94-3.54,4.05c-1.52,1.12-3.16,1.67-4.9,1.66
				c-1.74,0-3.4-0.39-4.97-1.17c-3.66-1.73-7.21-4.49-10.65-8.31s-6.38-7.8-8.81-11.92c-2.43-4.12-3.96-7.39-4.57-9.79
				c-0.61-2.4-0.9-4.74-0.9-7.01s0.6-4.23,1.78-5.86s2.42-2.45,3.73-2.44c0.44,0,0.7,0.04,0.78,0.13c0.09,0.09,0.05,0.3-0.13,0.64
				c-1.66,1.03-2.49,3.15-2.5,6.37c0,3.22,1.06,6.87,3.19,10.94c2.13,4.08,4.81,7.93,8.02,11.53c2.88,3,6.12,5.65,9.74,7.93
				c3.62,2.28,6.26,3.42,7.91,3.42c3.23,0,4.84-0.89,4.84-2.69s-1.47-4.55-4.44-8.25c-5.22-6.1-9.06-10.26-11.49-12.51
				c-8.62-7.9-12.93-12.16-12.93-12.76c0-1.03,0.31-2.27,0.93-3.73c0.61-1.46,1.35-1.93,2.22-1.42c6.27,4.39,12.59,6.97,18.96,7.75
				c0.78,0.09,1.79,0.13,3.01,0.13c1.22,0,2.22-0.34,3.01-1.03c1.4-1.29,1.48-3.05,0.27-5.28s-3.65-5.35-7.32-9.34
				c-3.65-4-7.23-7.2-10.72-9.6c-0.44-0.34-0.54-0.73-0.33-1.16c0.22-0.43,0.41-0.64,0.59-0.64c1.31,0,4.17,2.05,8.56,6.12
				c4.39,4.09,7.38,7.2,8.95,9.34c3.04,4.03,4.57,7.78,4.56,11.21c0,3.26-1.67,5.45-4.98,6.55c-1.05,0.26-2.22,0.39-3.53,0.39
				c-3.93-0.01-8.07-0.82-12.43-2.47c0.18,0.34,1.92,1.93,5.22,4.77c3.32,2.83,6.49,6.12,9.54,9.86
				C548.3,557.79,549.83,561.16,549.82,564.16"/>
			<path class="st1" d="M515.97,490.69c1.02,1.25,3.7,3.54,8,6.86c4.31,3.33,8.12,5.61,11.45,6.87s6.07,1.88,8.2,1.88
				c2.14,0,3.2-0.92,3.2-2.78c0-1.85-1.31-4.46-3.96-7.83c-4.43-5.44-12.66-11.56-24.69-18.38c-0.6-0.34-0.9-0.97-0.9-1.87
				c0-0.9,0.24-2.15,0.71-3.75c0.47-1.59,1.09-2.39,1.86-2.39c0.26,0,0.51,0.09,0.77,0.26c5.8,3.63,12.37,5.92,19.72,6.88
				c2.48,0.35,4.48-0.07,6.02-1.28c1.54-1.12,1.37-3.4-0.5-6.85c-2.64-5.34-6.78-10.24-12.41-14.69s-10.71-7.18-15.23-8.22
				c-0.94-0.34-1.96-0.52-3.07-0.52c-4.78-0.01-7.69,1.37-8.72,4.13c-0.34,0.77-0.45,1.64-0.32,2.58c0.13,0.95,0.09,1.51-0.13,1.68
				c-0.21,0.17-0.45,0.22-0.7,0.13c-0.77-0.17-1.15-1.94-1.14-5.3c0.01-5.6,2.87-8.4,8.59-8.39c5.72,0.01,12.6,3.29,20.61,9.85
				c4.86,4.15,9.34,9.01,13.43,14.62c2.13,3.1,3.19,6.33,3.19,9.69c-0.01,4.39-1.63,7.11-4.88,8.13c-1.54,0.6-3.97,0.89-7.3,0.89
				s-6.06-0.44-8.2-1.3c4.61,2.34,8.49,4.88,11.65,7.64c3.16,2.76,5.31,5.11,6.46,7.05c1.15,1.94,1.72,3.9,1.72,5.88
				c0,3.45-0.93,5.86-2.76,7.24c-1.84,1.38-3.82,2.06-5.96,2.06c-2.82,0-5.87-0.63-9.16-1.88c-3.29-1.25-5.89-2.51-7.8-3.76
				c-1.92-1.25-4.23-2.9-6.91-4.92s-4.16-3.35-4.41-3.95c-0.34-1.29-0.51-2.52-0.5-3.68c0-1.16,0.17-2.17,0.51-3.04
				c0.34-0.86,0.77-1.31,1.28-1.36C514.18,488.84,514.95,489.45,515.97,490.69"/>
			<path class="st0" d="M490.94,441.34c0,0.93-0.26,5.74-5.09,7.77l-87.7,36.78l-0.02,17l3.99,0.01l0-1.65
				c0.01-4.08,0.34-6.93,4.59-8.82l78.47,31.93c5.59,2.24,5.64,7.85,5.64,8.08l0,1.65l4,0.01l0.03-19.49l-4-0.01l0,1.65
				c0,1.21-0.43,3.44-1.59,4.24c-0.66,0.45-1.63,0.42-2.86-0.07l-19.59-8.02l-4-1.63l-50.7-20.63l50.76-21.15l4-1.65l20.07-8.39
				c1.48-0.62,2.11-0.19,2.31-0.06c1.14,0.78,1.67,3.07,1.66,4.38l0,1.65l4,0.01l0.03-25.2l-4-0.01L490.94,441.34z"/>
		</g>
		<g>
			<path class="st0" d="M43.34,410.89c-4.36,3.65-8.4,7.66-12.14,11.95c-15.43,17.74-25.42,40.4-27.2,65.3
				c-0.19,2.65-0.3,5.33-0.3,8.02c0,2.68,0.09,5.34,0.28,7.97c4,57.96,52.22,103.91,111,103.99l103.95,0.14
				c27.4,0.04,52.51-9.91,71.97-26.39c4.34-3.66,8.39-7.67,12.12-11.95c15.42-17.72,25.38-40.34,27.2-65.21
				c0.19-2.68,0.3-5.39,0.3-8.12c0-2.58-0.08-5.17-0.26-7.7c-3.87-58.08-52.16-104.19-111.02-104.27l-103.95-0.14
				C87.89,384.46,62.78,394.39,43.34,410.89z M219.23,393.15c54.18,0.08,98.66,42.36,102.53,95.75c0.19,2.55,0.28,5.12,0.28,7.7
				c0,2.73-0.12,5.44-0.33,8.12c-2.01,25.39-13.21,48.25-30.27,65.19c-1.71,1.7-3.49,3.34-5.32,4.91
				c-18.05,15.57-41.53,24.98-67.16,24.95L115,599.62c-54.1-0.08-98.53-42.22-102.53-95.48c-0.21-2.63-0.29-5.29-0.29-7.97
				c0-2.7,0.11-5.38,0.31-8.02c2.01-25.46,13.23-48.35,30.31-65.3c1.71-1.7,3.48-3.34,5.32-4.9c18.05-15.58,41.53-24.98,67.16-24.95
				L219.23,393.15L219.23,393.15z"/>
			<path class="st1" d="M180.3,402.07l10.51,0.01c1.81,0,3.05,1.88,2.3,3.52c-1.96,4.25-4.61,8.25-8.09,12.36l-57.28,66.57
				c-1.39,1.64-0.25,4.16,1.89,4.16l19.22,0.03c0.18,0,0.34,0.03,0.51,0.06c0.6,0.14,1.24,0.21,1.95,0.21l137.49,0.19
				c0.12,0,0.24,0.01,0.34,0.03l22.75,0.03c0.18,2.39,0.26,4.79,0.26,7.21c0,2.55-0.11,5.09-0.31,7.6l-22.27-0.03
				c-0.25,0.09-0.51,0.13-0.79,0.13l-59.39-0.08c-2.21,0-3.35,2.66-1.82,4.27l51.07,53.42c0.02,0.01,0.02,0.01,0.02,0.03
				c1,1.04,1,2.66-0.06,3.65c-0.93,0.87-1.87,1.71-2.83,2.55c-0.28-0.33-0.55-0.63-0.85-0.92l-50.34-52.41
				c-1.02-1.07-2.74-1.02-3.7,0.08l-65.06,75.07c-0.48,0.56-1.17,0.87-1.89,0.87l-10.51-0.01c-1.81,0-3.05-1.88-2.3-3.53
				c1.96-4.24,4.61-8.23,8.07-12.35l57.28-66.57c1.39-1.64,0.25-4.16-1.89-4.16l-19.22-0.03c-0.18,0-0.34-0.03-0.51-0.07
				c-0.6-0.14-1.24-0.2-1.95-0.2l-160.56-0.22c-0.2-2.46-0.28-4.96-0.28-7.46c0-2.52,0.1-5.03,0.3-7.51l82.49,0.11
				c2.2,0,3.34-2.66,1.81-4.27L55.6,430.99c-0.01-0.02-0.01-0.03-0.03-0.03c-1-1.05-0.99-2.67,0.07-3.66
				c0.93-0.86,1.87-1.71,2.83-2.54c0.28,0.32,0.55,0.63,0.85,0.9l50.33,52.43c1.02,1.07,2.74,1.02,3.7-0.1l65.07-75.07
				C178.89,402.39,179.58,402.07,180.3,402.07"/>
			<path class="st1" d="M141.75,551.85c5,0.01,9.03,4.07,9.03,9.08c-0.01,5.02-4.05,9.06-9.05,9.06c-5-0.01-9.03-4.06-9.03-9.08
				C132.71,555.89,136.75,551.84,141.75,551.85"/>
			<path class="st1" d="M113.67,451.25c3.39,0,6.14,2.76,6.13,6.17c0,3.41-2.75,6.16-6.15,6.15c-3.39,0-6.14-2.76-6.13-6.17
				C107.53,454,110.27,451.25,113.67,451.25"/>
			<path class="st1" d="M190.19,422.92c5,0.01,9.03,4.07,9.03,9.08c-0.01,5.02-4.05,9.06-9.05,9.06c-5-0.01-9.03-4.06-9.03-9.08
				C181.14,426.96,185.19,422.91,190.19,422.92"/>
			<path class="st1" d="M217.46,532.06c3.39,0,6.14,2.76,6.13,6.17c0,3.41-2.75,6.16-6.15,6.15c-3.39,0-6.14-2.76-6.13-6.17
				C211.32,534.8,214.07,532.05,217.46,532.06"/>
		</g>
	</g>
	
		<rect x="97.94" y="495.62" transform="matrix(1.386018e-03 -1 1 1.386018e-03 85.8165 1081.8763)" class="st2" width="973.31" height="4.7"/>
</g>
</svg>
