<?xml version="1.0" encoding="utf-8"?>
<!-- Generator: Adobe Illustrator 26.1.0, SVG Export Plug-In . SVG Version: 6.00 Build 0)  -->
<svg version="1.1" id="Calque_1" xmlns="http://www.w3.org/2000/svg" xmlns:xlink="http://www.w3.org/1999/xlink" x="0px" y="0px"
	 viewBox="0 0 992.13 595.28" style="enable-background:new 0 0 992.13 595.28;" xml:space="preserve">
<style type="text/css">
	.st0{fill:#EDBD97;}
	.st1{fill:#CC7A3E;}
	.st2{fill:#CC793E;}
</style>
<g>
	<g>
		<g>
			<path class="st0" d="M697.52,470.52c-7.68,15.27-20.44,23.68-35.92,23.7c-25.71,0.02-44.4-19.68-44.43-46.86
				c-0.03-27.14,15.91-44.7,40.61-44.72c20.43-0.02,32.65,10.33,32.66,27.69l0,1.88l4.51,0l-0.02-21.82l-1.77-1.1
				c-6.69-4.18-17.9-11.17-35.38-11.15c-30.1,0.04-51.1,21.14-51.06,51.33c0.04,30.01,21.08,50.95,51.18,50.91
				c19.34-0.02,34.83-9.92,43.61-27.88l0.82-1.68l-3.94-1.97L697.52,470.52z"/>
			<path class="st0" d="M795.29,489l-36.73-87.99l-17.27,0.02l0,4.51l1.88,0c3.92,0,6.66,0.3,8.48,4.33l-31.41,78.66
				c-2.15,5.45-7.54,5.52-7.78,5.52l-1.88,0l0,4.51l19.84-0.02l0-4.51l-1.88,0c-1.16,0-3.26-0.4-3.99-1.48
				c-0.41-0.59-0.37-1.48,0.07-2.63l7.83-19.51l1.81-4.51l19.95-49.97l20.72,49.93l1.86,4.51l8.31,19.94
				c0.56,1.36,0.2,1.91,0.08,2.09c-0.69,1.02-2.84,1.57-4.13,1.56l-1.88,0l0,4.51l25.49-0.02l0-4.51l-1.88,0
				C801.86,493.93,797.24,493.7,795.29,489"/>
			<g>
				<path class="st0" d="M818.94,405.86l1.88,0c0.58,0,5.7,0.14,5.7,4.81l0.09,78.84c0,4.68-5.12,4.81-5.7,4.81l-1.88,0l0,4.51
					l25.04-0.03l0-4.51l-1.88,0c-0.58,0-5.7-0.13-5.7-4.81l-0.09-83.65l35.16-0.04c13.98-0.02,14.63,5.56,14.65,16.25l0,1.88l4.51,0
					l-0.03-22.66l-71.76,0.08L818.94,405.86z"/>
				<path class="st0" d="M862.81,431.52c0.01,10.89-1.18,15.74-12.66,16.27c-4.27-0.28-7.5-2.03-9.07-4.95l-1.04-1.92l-3.64,2.74
					l0.8,1.43c2.17,3.9,6.04,6.33,11.03,7.01l0,0.2c13.98-0.02,14.63,5.56,14.65,16.25l0,1.88l4.51,0l-0.04-40.8l-4.51,0l0,1.88
					L862.81,431.52L862.81,431.52z"/>
			</g>
			<g>
				<path class="st0" d="M978.85,475.68l0,1.88c0.02,10.69-0.63,16.26-14.61,16.28l-40.07,0.04l-0.1-88.46l35.16-0.04
					c13.98-0.02,14.63,5.56,14.65,16.25l0,1.88l4.51,0l-0.03-22.66l-71.75,0.08l0,4.51l1.88,0c0.58,0,5.7,0.14,5.7,4.81l0.09,78.84
					c0,4.68-5.12,4.81-5.7,4.81l-1.88,0l0,4.51l76.65-0.08l-0.03-22.66L978.85,475.68L978.85,475.68z"/>
				<path class="st0" d="M955.11,469.95l-0.04-40.81l-4.51,0l0,1.88c0.01,10.89-1.18,15.74-12.66,16.27
					c-4.27-0.28-7.5-2.03-9.07-4.95l-1.05-1.92l-3.64,2.74l0.8,1.43c2.17,3.9,6.04,6.33,11.03,7.01l0,0.2
					c13.98-0.02,14.63,5.56,14.65,16.24l0,1.88l4.5,0L955.11,469.95z"/>
			</g>
			<path class="st0" d="M83.24,488.44c-21.5-18.65-35.11-30.42-50.22-43.34l33.9-32.73c1.31-1.17,3.19-2.62,5.7-3.82
				c3.48-1.69,6.65-2.21,8.73-2.38l1.63,0v-3.99l-19.44,0.02l0,3.99l1.63,0c0.05,0,0.12,0,0.2,0.18c0.2,0.5,0.09,1.91-1.77,3.69
				l-35.95,34.56l-0.03-33.34c0-4.98,5.7-5.04,5.94-5.04l1.63,0l0-3.99l-24.5,0.03l0,3.99l1.63,0c0.24,0,5.94,0.06,5.94,5.04
				l0.09,78.47c0,4.98-5.7,5.04-5.94,5.04l-1.63,0l0,3.99l24.49-0.03l0-4l-1.63,0c-0.24,0-5.94-0.06-5.94-5.04L27.65,453
				l44.28,37.92c6.64,5.59,12.9,7.78,22.29,7.76l1.63,0v-3.99c-0.54,0-1.09,0-1.63,0C90.6,492.79,86.52,491.29,83.24,488.44z"/>
			<path class="st0" d="M198.71,494.56c-0.93,0-5.69-0.25-7.71-5.09l-36.68-87.94l-16.85,0.02l0,4.01l1.63,0
				c4.04,0,6.87,0.32,8.76,4.59l-31.46,78.84c-2.21,5.62-7.78,5.68-8,5.68l-1.63,0l0,4.01l19.33-0.02l0-4.01l-1.63,0
				c-1.2,0-3.41-0.42-4.2-1.59c-0.45-0.66-0.42-1.63,0.05-2.87l7.9-19.69l1.6-4.01l20.32-50.94l21.1,50.9l1.65,4.01l8.37,20.12
				c0.61,1.49,0.2,2.12,0.06,2.32c-0.77,1.15-3.04,1.69-4.35,1.68l-1.63,0l0,4.01l24.98-0.03l0-4.01l-1.62,0L198.71,494.56z"/>
			<path class="st0" d="M284.09,405.4l1.63,0c0.24,0,5.96,0.06,5.96,5.07l0.04,37.38l-59.89,0.07l-0.04-37.38
				c0-5.01,5.72-5.07,5.96-5.07l1.63,0l0-4.01l-24.56,0.03l0,4.01l1.63,0c0.24,0,5.96,0.06,5.96,5.07l0.09,78.93
				c0,5.01-5.72,5.07-5.96,5.07l-1.63,0l0,4.01l24.57-0.03l0-4.01l-1.63,0c-0.24,0-5.96-0.06-5.96-5.07l-0.04-37.53l59.89-0.07
				l0.04,37.53c0,5.01-5.72,5.07-5.96,5.07l-1.63,0l0,4.01l24.57-0.03l0-4.01l-1.63,0c-0.24,0-5.96-0.06-5.96-5.07l-0.09-78.93
				c0-5.01,5.72-5.07,5.96-5.07l1.63,0l0-4.01l-24.58,0.03L284.09,405.4z"/>
			<path class="st0" d="M464.65,401.18l0,4.09l-1.64,0c-0.23,0-5.81,0.06-8.03,5.77l-25.69,65.47c-1.39-0.31-2.79-0.56-4.18-0.8
				l25.93-65.91c0.49-1.27,0.5-2.25,0.05-2.92c-0.79-1.18-3.01-1.61-4.21-1.62l-1.65,0l0-4.09l19.4-0.02l0,0.01L464.65,401.18z"/>
			<path class="st0" d="M423.47,480.3c1.53,0.08,2.98,0.21,4.35,0.4l-7.61,19.4l-3.1,0.01l-2.97-7.23l-2.44-5.92l-2.65-6.44
				c2.77-0.25,5.57-0.36,8.4-0.37c0.51,0,1.01,0,1.51,0.01l2.33,5.69L423.47,480.3z"/>
			<g>
				<path class="st1" d="M469.55,562.38c0,1.72-0.43,3.71-1.3,5.96c-0.94,3.11-3.58,5.49-7.89,7.14c-2.76,1.04-5.36,1.55-7.77,1.56
					c-7.25,0.01-14.6-2.01-22.02-6.05c-4.92-2.77-9.35-6.2-13.29-10.3c-3.92-4.1-7.21-7.78-9.85-11.07
					c-2.65-3.27-5.58-7.36-8.81-12.23c-3.24-4.87-5.52-8.14-6.81-9.78l-0.9-0.12c-6.56,12.1-9.83,19.4-9.83,21.9
					c0,1.3,0.57,1.94,1.68,1.94c1.12,0,2.64-1.19,4.53-3.56c1.88-2.38,3.18-3.53,3.88-3.43c0.51,0.52-0.05,1.64-1.67,3.37
					c-0.18,0.17-0.48,0.63-0.91,1.36c-0.43,0.74-0.8,1.32-1.1,1.75c-0.31,0.43-0.71,1-1.23,1.68c-0.52,0.69-0.99,1.25-1.42,1.68
					c-0.43,0.43-0.9,0.87-1.42,1.3c-1.04,0.87-1.94,1.3-2.72,1.31c-0.78,0-1.86-0.15-3.24-0.45c-1.38-0.3-2.07-0.87-2.07-1.73
					c0-3.89,3.53-12.92,10.59-27.1c-2.85-0.25-4.27-1.3-4.28-3.11c0-0.35,0.04-0.78,0.13-1.3c0.61-1.46,1.69-2.2,3.29-2.21
					c1.6,0,2.88,0.38,3.83,1.16c0.68-1.38,1.5-2.93,2.45-4.67c3.36-6.05,5.05-9.89,5.05-11.54c0-0.42-0.05-0.86-0.13-1.29
					c0.34-2.41,2.44-5.6,6.27-9.54c3.75-3.84,7.17-5.81,10.22-5.9l2.56,6.1c-5.71,2.87-13.19,12.36-22.39,28.49
					c1.04,0.43,2.05,0.64,3.04,0.64s1.84-0.05,2.53-0.15c8.8-0.95,17.41-3.04,25.82-6.24c8.41-3.21,14.95-7.23,19.61-12.07
					c3.01-2.94,4.52-6.04,4.52-9.32c-0.01-7.71-6.28-12.33-18.82-13.88c-1.43-0.18-2.95-0.32-4.55-0.41
					c-1.5-0.11-3.07-0.15-4.71-0.18c-0.52-0.01-1.05-0.01-1.58-0.01c-2.96,0.01-5.9,0.12-8.79,0.38
					c-8.15,0.66-15.99,2.28-23.58,4.84c-4.32,1.54-8.11,3.5-11.4,5.9l3.4-8.58c1.02-0.58,2.08-1.16,3.19-1.73
					c7.51-3.52,16.19-5.58,25.97-6.19c2-0.14,4.04-0.18,6.14-0.19c1.46,0,2.91,0.03,4.37,0.12c2.96,0.14,5.92,0.47,8.86,0.94
					c1.46,0.23,2.92,0.49,4.38,0.82c1.64,0.36,3.29,0.75,4.92,1.22c5.01,1.73,8.81,4.18,11.41,7.37c2.6,3.19,3.89,6.44,3.89,9.72
					c0,5.01-1.98,9.45-5.94,13.28c-3.97,3.85-8.41,6.81-13.33,8.88c-10.96,4.76-23.48,7.42-37.55,7.95
					c1.13,1.38,2.94,3.64,5.45,6.79c2.51,3.15,4.41,5.51,5.7,7.06c1.3,1.56,3.17,3.72,5.65,6.54c2.47,2.8,4.53,4.97,6.22,6.47
					s3.83,3.33,6.41,5.44c2.6,2.1,5.05,3.77,7.38,4.97c8.12,4.31,15.21,6.46,21.25,6.46l4.4-0.39c2.93-0.53,5.26-1.71,6.98-3.57
					c1.72-1.87,2.59-3.93,2.58-6.17c0-0.87-0.11-1.79-0.34-2.78c-0.21-1,0.07-1.49,0.85-1.49c0.87,0.09,1.44,0.71,1.75,1.88
					C469.39,559.21,469.55,560.65,469.55,562.38"/>
				<path class="st1" d="M367.59,501.44c1.14-2.35,2.9-4.53,5.25-6.53c0.73-0.62,1.48-1.21,2.27-1.77l3.4-8.58
					c-6.31,3.58-10.77,7.27-13.35,11.07c-0.01,0.02-0.03,0.04-0.04,0.06c-1.64,2.44-2.44,5.37-2.43,8.32l0,1.78
					c0.01,2.6,1.16,5.01,3.5,7.24c2.34,2.24,4.85,3.59,7.51,4.01c0.87,0.17,1.42,0.06,1.68-0.33c0.26-0.38,0.15-0.75-0.33-1.1
					c-0.47-0.35-1.42-0.87-2.85-1.55c-1.42-0.69-2.52-1.28-3.3-1.8c-0.78-0.52-1.45-1.28-2.02-2.26c-0.56-0.99-0.84-1.84-0.85-2.53
					c0-0.68,0.04-1.24,0.13-1.68C366.45,504.27,366.92,502.83,367.59,501.44"/>
			</g>
			<path class="st0" d="M412.84,474.72c-2,0.01-3.95,0.06-5.86,0.18l-12.75-31.03l-15.12,38.71l-3.25,8.34l-3.61,9.23l-3.09,0.01
				l-0.49-1.18l-2.31-5.63l-33.98-82.74c-2.02-4.93-7.05-5.18-8.03-5.18l-1.64,0l0-4.09l25.06-0.03l0,4.09l-1.64,0
				c-1.22,0-3.35,0.51-4.07,1.61c-0.15,0.21-0.58,0.88,0.07,2.46l31.36,76.42l18.64-47.32l-11.56-28.02
				c-2.02-4.94-7.05-5.19-8.03-5.19l-1.64,0l0-4.09l25.05-0.03l0,4.09l-1.64,0c-1.21,0-3.35,0.51-4.07,1.61
				c-0.14,0.21-0.57,0.88,0.08,2.46l26.71,65.41C415.62,474.75,414.23,474.71,412.84,474.72"/>
			<path class="st1" d="M430.9,553.37c-1.37,0-2.85-0.4-4.44-1.24c-1.59-0.83-2.95-1.99-4.06-3.53c-1.12-1.52-1.68-3.16-1.67-4.9
				c0-1.74,0.38-3.4,1.16-4.97c1.72-3.66,4.47-7.22,8.28-10.67s7.78-6.4,11.9-8.84c4.11-2.44,7.38-3.98,9.78-4.59
				c2.4-0.62,4.74-0.91,7.01-0.92c2.27-0.01,4.23,0.59,5.86,1.77s2.46,2.41,2.45,3.72c0,0.44-0.04,0.7-0.13,0.78
				c-0.09,0.09-0.3,0.05-0.64-0.13c-1.03-1.66-3.16-2.48-6.38-2.48c-3.22,0.01-6.87,1.08-10.93,3.22
				c-4.07,2.14-7.92,4.83-11.51,8.05c-2.99,2.89-5.63,6.13-7.91,9.76c-2.27,3.63-3.4,6.27-3.4,7.92c0.01,3.23,0.9,4.84,2.7,4.83
				s4.55-1.48,8.24-4.46c6.09-5.24,10.24-9.09,12.48-11.52c7.88-8.64,12.13-12.96,12.73-12.96c1.03,0,2.27,0.3,3.73,0.92
				c1.46,0.61,1.93,1.35,1.43,2.22c-4.37,6.28-6.94,12.61-7.7,18.98c-0.09,0.78-0.13,1.79-0.12,3.01c0,1.22,0.35,2.22,1.04,3.01
				c1.29,1.4,3.05,1.47,5.28,0.26c2.23-1.22,5.34-3.66,9.32-7.34c3.99-3.66,7.18-7.25,9.57-10.74c0.34-0.44,0.73-0.54,1.16-0.33
				c0.43,0.22,0.64,0.41,0.64,0.59c0,1.31-2.04,4.18-6.1,8.58c-4.08,4.4-7.18,7.4-9.32,8.97c-4.02,3.05-7.77,4.59-11.2,4.59
				c-3.26,0.01-5.45-1.66-6.56-4.96c-0.26-1.05-0.4-2.22-0.4-3.53c0-3.93,0.8-8.07,2.44-12.44c-0.34,0.18-1.93,1.92-4.76,5.23
				c-2.82,3.33-6.1,6.51-9.84,9.56C437.27,551.84,433.9,553.37,430.9,553.37"/>
			<path class="st1" d="M504.29,519.34c-1.25,1.02-3.53,3.71-6.84,8.02c-3.32,4.32-5.59,8.13-6.84,11.47
				c-1.25,3.33-1.86,6.07-1.86,8.2c0.01,2.14,0.93,3.2,2.79,3.19c1.85,0,4.46-1.32,7.82-3.98c5.43-4.44,11.53-12.69,18.32-24.74
				c0.34-0.6,0.97-0.9,1.87-0.9c0.9,0,2.15,0.23,3.75,0.7c1.59,0.47,2.39,1.08,2.39,1.85c0,0.26-0.09,0.51-0.26,0.77
				c-3.62,5.81-5.89,12.38-6.83,19.74c-0.34,2.48,0.08,4.48,1.3,6.02c1.12,1.54,3.4,1.36,6.85-0.52
				c5.33-2.65,10.22-6.81,14.66-12.45c4.44-5.64,7.15-10.73,8.18-15.25c0.34-0.94,0.52-1.96,0.51-3.07c0-4.78-1.39-7.69-4.15-8.71
				c-0.77-0.34-1.64-0.45-2.58-0.31c-0.95,0.13-1.51,0.09-1.68-0.13c-0.17-0.21-0.22-0.45-0.13-0.7c0.17-0.77,1.94-1.15,5.3-1.15
				c5.6,0,8.41,2.85,8.41,8.57c0,5.72-3.26,12.61-9.8,20.63c-4.14,4.87-8.99,9.36-14.59,13.47c-3.09,2.14-6.32,3.21-9.68,3.21
				c-4.39,0-7.11-1.61-8.14-4.86c-0.6-1.54-0.9-3.97-0.91-7.3c-0.01-3.33,0.42-6.06,1.28-8.2c-2.33,4.62-4.86,8.5-7.61,11.67
				c-2.75,3.17-5.1,5.32-7.03,6.48c-1.94,1.15-3.9,1.73-5.88,1.73c-3.45,0.01-5.86-0.92-7.25-2.74c-1.38-1.84-2.07-3.81-2.07-5.95
				c-0.01-2.82,0.62-5.87,1.86-9.16s2.5-5.9,3.74-7.81c1.25-1.92,2.89-4.24,4.9-6.92c2.01-2.69,3.34-4.17,3.94-4.42
				c1.29-0.34,2.52-0.52,3.68-0.51c1.16,0,2.17,0.16,3.04,0.5c0.86,0.34,1.31,0.77,1.36,1.28
				C506.13,517.54,505.52,518.31,504.29,519.34"/>
			<path class="st0" d="M553.57,494.18c-0.93,0-5.74-0.25-7.78-5.07l-37-87.61l-17,0.02v3.99l1.65,0c4.08,0,6.93,0.32,8.83,4.57
				l-31.73,78.55c-2.23,5.6-7.84,5.66-8.07,5.66l-1.65,0l0,4l19.49-0.02l0-4l-1.65,0c-1.21,0-3.44-0.42-4.24-1.58
				c-0.45-0.66-0.42-1.63,0.06-2.86l7.97-19.61l1.62-4l20.5-50.75l21.28,50.71l1.66,4l8.44,20.05c0.62,1.48,0.2,2.11,0.07,2.31
				c-0.78,1.14-3.07,1.68-4.38,1.67l-1.65,0v4l25.2-0.03v-4L553.57,494.18z"/>
		</g>
		<g>
			<path class="st0" d="M582.9,46.51c-3.66-4.35-7.68-8.38-11.98-12.11c-17.78-15.39-40.46-25.32-65.37-27.04
				c-2.65-0.18-5.33-0.29-8.02-0.28c-2.68,0.01-5.34,0.1-7.97,0.3c-57.95,4.15-103.78,52.48-103.71,111.26l0.12,103.95
				c0.03,27.4,10.04,52.48,26.57,71.9c3.67,4.33,7.69,8.37,11.98,12.09c17.76,15.38,40.4,25.28,65.28,27.04
				c2.68,0.18,5.39,0.29,8.12,0.28c2.58-0.01,5.17-0.09,7.7-0.28c58.07-4.02,104.06-52.42,103.99-111.28l-0.12-103.95
				C609.44,90.99,599.45,65.91,582.9,46.51z M601.08,222.35c0.06,54.18-42.11,98.77-95.49,102.77c-2.55,0.2-5.12,0.29-7.7,0.3
				c-2.73,0.01-5.44-0.11-8.12-0.31c-25.39-1.95-48.28-13.09-65.27-30.11c-1.7-1.71-3.35-3.48-4.92-5.31
				c-15.62-18.01-25.08-41.47-25.12-67.1l-0.11-103.96c-0.06-54.1,41.97-98.64,95.22-102.77c2.63-0.22,5.29-0.3,7.97-0.31
				c2.7-0.01,5.38,0.1,8.02,0.29c25.46,1.95,48.38,13.11,65.38,30.15c1.7,1.71,3.35,3.47,4.91,5.31
				c15.63,18.01,25.08,41.47,25.12,67.1L601.08,222.35L601.08,222.35z"/>
			<path class="st1" d="M592.06,183.45l0.02,10.51c0,1.81-1.87,3.05-3.51,2.31c-4.25-1.95-8.26-4.59-12.38-8.06l-66.71-57.11
				c-1.64-1.39-4.16-0.24-4.16,1.9l0.02,19.22c0,0.18-0.03,0.34-0.06,0.51c-0.14,0.6-0.21,1.24-0.21,1.95l0.15,137.49
				c0,0.12-0.01,0.24-0.03,0.34l0.03,22.75c-2.39,0.19-4.79,0.27-7.21,0.28c-2.55,0.01-5.09-0.1-7.6-0.29l-0.03-22.27
				c-0.09-0.25-0.13-0.51-0.13-0.79l-0.07-59.39c-0.01-2.21-2.67-3.34-4.27-1.81l-53.29,51.2c-0.01,0.02-0.01,0.02-0.03,0.02
				c-1.04,1-2.66,1.01-3.65-0.05c-0.87-0.93-1.71-1.87-2.56-2.82c0.33-0.28,0.63-0.55,0.92-0.85l52.28-50.47
				c1.07-1.02,1.01-2.74-0.09-3.7l-75.23-64.87c-0.56-0.48-0.87-1.17-0.87-1.89l-0.02-10.51c0-1.81,1.87-3.05,3.52-2.31
				c4.24,1.95,8.24,4.59,12.37,8.04l66.71,57.11c1.64,1.39,4.16,0.24,4.16-1.9l-0.02-19.22c0-0.18,0.03-0.34,0.07-0.51
				c0.14-0.6,0.2-1.24,0.2-1.95L490.2,25.74c2.46-0.21,4.96-0.29,7.46-0.3c2.52-0.01,5.03,0.09,7.51,0.28l0.1,82.49
				c0.01,2.2,2.67,3.33,4.27,1.8l53.29-51.19c0.02-0.01,0.03-0.01,0.03-0.03c1.05-1,2.67-1,3.66,0.06c0.86,0.93,1.71,1.87,2.55,2.82
				c-0.32,0.28-0.63,0.55-0.9,0.85l-52.3,50.46c-1.07,1.02-1.01,2.74,0.11,3.7l75.23,64.88
				C591.74,182.04,592.06,182.73,592.06,183.45"/>
			<path class="st1" d="M442.19,145.27c0,5-4.05,9.04-9.06,9.05c-5.02,0-9.07-4.03-9.08-9.03c0-5,4.04-9.04,9.06-9.05
				C438.13,136.24,442.19,140.27,442.19,145.27"/>
			<path class="st1" d="M542.72,116.94c0.01,3.39-2.74,6.15-6.15,6.15c-3.41,0.01-6.17-2.73-6.17-6.13
				c-0.01-3.39,2.74-6.15,6.15-6.15C539.95,110.81,542.71,113.54,542.72,116.94"/>
			<path class="st1" d="M571.24,193.39c0,5-4.05,9.04-9.06,9.05c-5.02,0-9.07-4.03-9.08-9.03c0-5,4.04-9.04,9.06-9.05
				C567.18,184.35,571.24,188.39,571.24,193.39"/>
			<path class="st1" d="M462.17,220.93c0.01,3.39-2.74,6.15-6.15,6.15c-3.41,0.01-6.17-2.73-6.17-6.13
				c-0.01-3.39,2.74-6.15,6.15-6.15C459.41,214.8,462.17,217.54,462.17,220.93"/>
		</g>
	</g>
	
		<rect x="10.52" y="585.63" transform="matrix(1 -1.123263e-03 1.123263e-03 1 -0.6601 0.5588)" class="st2" width="973.31" height="4.7"/>
</g>
</svg>
