<?xml version="1.0" encoding="utf-8"?>
<!-- Generator: Adobe Illustrator 26.1.0, SVG Export Plug-In . SVG Version: 6.00 Build 0)  -->
<svg version="1.1" id="Calque_1" xmlns="http://www.w3.org/2000/svg" xmlns:xlink="http://www.w3.org/1999/xlink" x="0px" y="0px"
	 viewBox="0 0 155.91 226.77" style="enable-background:new 0 0 155.91 226.77;" xml:space="preserve">
<style type="text/css">
	.st0{fill:#EDBD97;}
	.st1{fill:#CC7A3E;}
</style>
<g>
	<path class="st0" d="M136.51,28.28c-2.5-2.99-5.25-5.77-8.19-8.32C116.17,9.37,100.64,2.54,83.6,1.34c-1.81-0.13-3.65-0.2-5.49-0.2
		c-1.83,0-3.66,0.07-5.46,0.2C32.99,4.14,1.57,37.3,1.57,77.68v71.4c0,18.82,6.83,36.06,18.13,49.4c2.51,2.98,5.26,5.75,8.19,8.31
		c12.15,10.57,27.64,17.39,44.66,18.62c1.83,0.13,3.69,0.2,5.56,0.2c1.77,0,3.54-0.06,5.27-0.19c39.75-2.71,71.26-35.92,71.26-76.35
		v-71.4C154.64,58.86,147.82,41.62,136.51,28.28z M148.82,149.07c0,37.21-28.9,67.81-65.44,70.51c-1.75,0.13-3.5,0.2-5.27,0.2
		c-1.87,0-3.72-0.08-5.56-0.22c-17.38-1.35-33.04-9.03-44.65-20.73c-1.16-1.18-2.28-2.39-3.37-3.65
		c-10.67-12.39-17.14-28.51-17.14-46.11v-71.4c0-37.16,28.8-67.72,65.26-70.51c1.8-0.14,3.62-0.21,5.46-0.21s3.68,0.07,5.49,0.21
		c17.43,1.35,33.11,9.04,44.72,20.75c1.16,1.17,2.28,2.39,3.36,3.65c10.68,12.39,17.14,28.51,17.14,46.11V149.07z"/>
	<path class="st1" d="M142.67,122.33v7.22c0,1.24-1.29,2.1-2.41,1.58c-2.91-1.34-5.65-3.16-8.47-5.54L86.17,86.31
		c-1.12-0.96-2.85-0.16-2.85,1.31v13.2c0,0.12-0.02,0.24-0.04,0.35c-0.09,0.41-0.14,0.85-0.14,1.34v94.43
		c0,0.08-0.01,0.16-0.02,0.24v15.63c-1.63,0.12-3.28,0.18-4.93,0.18c-1.75,0-3.49-0.07-5.2-0.21v-15.3
		c-0.06-0.17-0.09-0.35-0.09-0.54v-40.8c0-1.52-1.82-2.3-2.92-1.24l-36.51,35.13c-0.01,0.01-0.01,0.01-0.02,0.01
		c-0.71,0.69-1.82,0.69-2.5-0.03c-0.6-0.64-1.17-1.29-1.75-1.94c0.23-0.2,0.43-0.38,0.63-0.59l35.83-34.62
		c0.73-0.7,0.7-1.88-0.06-2.54l-51.44-44.61c-0.38-0.33-0.6-0.8-0.6-1.3v-7.22c0-1.24,1.29-2.1,2.42-1.58
		c2.9,1.34,5.64,3.16,8.46,5.53l45.62,39.28c1.12,0.96,2.85,0.16,2.85-1.31v-13.2c0-0.12,0.02-0.24,0.05-0.35
		c0.09-0.41,0.13-0.85,0.13-1.34V13.94c1.69-0.13,3.39-0.2,5.11-0.2c1.73,0,3.44,0.06,5.14,0.2v56.65c0,1.51,1.82,2.29,2.92,1.23
		l36.51-35.12c0.01-0.01,0.02-0.01,0.02-0.02c0.72-0.69,1.83-0.68,2.51,0.04c0.59,0.64,1.17,1.29,1.74,1.94
		c-0.22,0.19-0.43,0.38-0.62,0.59L90.58,73.86c-0.73,0.7-0.7,1.88,0.07,2.54l51.44,44.63C142.45,121.37,142.67,121.84,142.67,122.33
		"/>
	<path class="st0" d="M41.78,96c0,3.43-2.78,6.21-6.21,6.21c-3.43,0-6.21-2.78-6.21-6.21s2.78-6.21,6.21-6.21S41.78,92.57,41.78,96"
		/>
	<path class="st0" d="M106.73,76.62c0,2.33-1.89,4.22-4.22,4.22s-4.21-1.89-4.21-4.22s1.88-4.22,4.21-4.22
		S106.73,74.29,106.73,76.62"/>
	<path class="st0" d="M130.63,132.21c0,3.43-2.78,6.21-6.21,6.21s-6.21-2.78-6.21-6.21s2.78-6.21,6.21-6.21
		S130.63,128.77,130.63,132.21"/>
	<path class="st0" d="M53.74,147.98c0,2.33-1.89,4.22-4.22,4.22s-4.21-1.89-4.21-4.22s1.88-4.22,4.21-4.22
		S53.74,145.65,53.74,147.98"/>
</g>
</svg>
