<?xml version="1.0" encoding="UTF-8"?>
<svg version="1.1" xmlns="http://www.w3.org/2000/svg" width="545" height="249">
<path d="M0 0 C179.85 0 359.7 0 545 0 C545 82.17 545 164.34 545 249 C365.15 249 185.3 249 0 249 C0 166.83 0 84.66 0 0 Z " fill="#461411" transform="translate(0,0)"/>
<path d="M0 0 C8.23069134 7.59436898 12.90524461 17.08875391 13.42993164 28.27288818 C13.48870667 30.84118862 13.51514447 33.40761692 13.52734375 35.9765625 C13.53304382 36.91956711 13.5387439 37.86257172 13.5446167 38.83415222 C13.55402469 40.82179659 13.56058388 42.80945627 13.56445312 44.79711914 C13.57415524 47.81229273 13.6052175 50.82678294 13.63671875 53.84179688 C13.6432506 55.78254808 13.64850036 57.72330411 13.65234375 59.6640625 C13.66469055 60.55293655 13.67703735 61.44181061 13.6897583 62.35762024 C13.65052517 73.56848781 10.15042567 82.79999391 2.47265625 90.99609375 C-2.10982312 95.28646288 -6.85572828 97.77361869 -12.67578125 100.01953125 C-13.66578125 100.51453125 -13.66578125 100.51453125 -14.67578125 101.01953125 C-24.11467211 101.93329756 -34.58552055 102.5332758 -42.67578125 97.01953125 C-43.35511719 96.59542969 -44.03445312 96.17132813 -44.734375 95.734375 C-52.8356727 90.2365189 -58.7021333 82.39854732 -61.2355957 72.92651367 C-61.87512642 68.70305705 -61.83850598 64.52376251 -61.84375 60.2578125 C-61.8470784 59.311978 -61.8504068 58.36614349 -61.85383606 57.39164734 C-61.85889058 55.39204391 -61.86124484 53.39243208 -61.86108398 51.39282227 C-61.86326114 48.36004406 -61.88140689 45.32763535 -61.90039062 42.29492188 C-61.90332686 40.34505332 -61.90531011 38.39518304 -61.90625 36.4453125 C-61.91343552 35.55016434 -61.92062103 34.65501617 -61.92802429 33.73274231 C-61.89222064 23.67789382 -60.16842052 15.48664594 -54.67578125 7.01953125 C-54.11890625 6.15328125 -53.56203125 5.28703125 -52.98828125 4.39453125 C-38.41918908 -10.56832017 -16.8783095 -12.49241302 0 0 Z " fill="#491713" transform="translate(292.67578125,34.98046875)"/>
<path d="M0 0 C1.65 0 3.3 0 5 0 C5 9.24 5 18.48 5 28 C11.16398107 23.06881514 17.04047215 18.19384155 22.44140625 12.43359375 C24 11 24 11 26 11 C24.6415798 14.04332765 23.11536976 16.12309151 20.7421875 18.453125 C20.11699219 19.071875 19.49179687 19.690625 18.84765625 20.328125 C17.87119141 21.27945313 17.87119141 21.27945313 16.875 22.25 C16.21628906 22.8996875 15.55757813 23.549375 14.87890625 24.21875 C13.25703357 25.81711727 11.6306719 27.41061897 10 29 C11.65995353 32.55095777 13.47528905 34.5854939 16.4375 37.1875 C17.32179688 37.96480469 18.20609375 38.74210937 19.1171875 39.54296875 C22.98128478 42.83635247 26.89831214 46.05950602 30.84765625 49.25 C33 51 33 51 34 52 C34.04063832 53.66617115 34.042721 55.33388095 34 57 C29.33769099 56.52544355 27.30693375 54.79381789 24 51.5625 C17.99642207 45.99668296 11.48893659 40.99148969 5 36 C5 56.13 5 76.26 5 97 C3.35 97 1.7 97 0 97 C0 87.76 0 78.52 0 69 C-5.60231943 73.9020295 -10.71252226 78.69874793 -15.80078125 84.05859375 C-18 86 -18 86 -21 86 C-19.56727377 82.71788736 -17.8023954 80.56048387 -15.25 78.0625 C-14.19039062 77.02222656 -14.19039062 77.02222656 -13.109375 75.9609375 C-11.29400705 74.27331766 -9.44730003 72.71752145 -7.5 71.1875 C-6.2625 70.1046875 -6.2625 70.1046875 -5 69 C-5 68.01 -5 67.02 -5 66 C-7.01265989 64.03720697 -7.01265989 64.03720697 -9.6875 62.0625 C-14.29168898 58.39953195 -18.79890412 54.66979887 -23.1875 50.75 C-23.76395264 50.25508057 -24.34040527 49.76016113 -24.93432617 49.25024414 C-27.50367101 46.92890405 -28.9177198 45.64762479 -29.36328125 42.140625 C-29.24339844 41.43421875 -29.12351563 40.7278125 -29 40 C-24.14205425 41.51298123 -21.02767414 44.30154788 -17.3125 47.625 C-11.67280736 52.61072139 -5.89360479 57.28511617 0 62 C0 41.54 0 21.08 0 0 Z " fill="#C7753B" transform="translate(266,33)"/>
<path d="M0 0 C8.23069134 7.59436898 12.90524461 17.08875391 13.42993164 28.27288818 C13.48870667 30.84118862 13.51514447 33.40761692 13.52734375 35.9765625 C13.53304382 36.91956711 13.5387439 37.86257172 13.5446167 38.83415222 C13.55402469 40.82179659 13.56058388 42.80945627 13.56445312 44.79711914 C13.57415524 47.81229273 13.6052175 50.82678294 13.63671875 53.84179688 C13.6432506 55.78254808 13.64850036 57.72330411 13.65234375 59.6640625 C13.66469055 60.55293655 13.67703735 61.44181061 13.6897583 62.35762024 C13.65052517 73.56848781 10.15042567 82.79999391 2.47265625 90.99609375 C-2.10982312 95.28646288 -6.85572828 97.77361869 -12.67578125 100.01953125 C-13.66578125 100.51453125 -13.66578125 100.51453125 -14.67578125 101.01953125 C-24.11467211 101.93329756 -34.58552055 102.5332758 -42.67578125 97.01953125 C-43.35511719 96.59542969 -44.03445312 96.17132813 -44.734375 95.734375 C-52.8356727 90.2365189 -58.7021333 82.39854732 -61.2355957 72.92651367 C-61.87512642 68.70305705 -61.83850598 64.52376251 -61.84375 60.2578125 C-61.8470784 59.311978 -61.8504068 58.36614349 -61.85383606 57.39164734 C-61.85889058 55.39204391 -61.86124484 53.39243208 -61.86108398 51.39282227 C-61.86326114 48.36004406 -61.88140689 45.32763535 -61.90039062 42.29492188 C-61.90332686 40.34505332 -61.90531011 38.39518304 -61.90625 36.4453125 C-61.91343552 35.55016434 -61.92062103 34.65501617 -61.92802429 33.73274231 C-61.89222064 23.67789382 -60.16842052 15.48664594 -54.67578125 7.01953125 C-54.11890625 6.15328125 -53.56203125 5.28703125 -52.98828125 4.39453125 C-38.41918908 -10.56832017 -16.8783095 -12.49241302 0 0 Z M-50.98828125 7.33203125 C-57.61692873 15.6362535 -58.82986154 24.46301609 -58.9140625 34.74609375 C-58.92213425 35.68955658 -58.93020599 36.63301941 -58.93852234 37.60507202 C-58.95232819 39.60046572 -58.96306593 41.5958827 -58.97094727 43.59130859 C-58.98244267 45.6161194 -59.00285559 47.64090049 -59.0324707 49.66552734 C-59.51269066 65.33457218 -59.51269066 65.33457218 -54.67578125 80.01953125 C-54.00724121 81.26391968 -54.00724121 81.26391968 -53.32519531 82.53344727 C-49.10321538 89.94132355 -41.83022652 95.50777519 -33.67578125 98.01953125 C-21.06916329 99.68769451 -11.41743452 97.64459581 -1.046875 90.109375 C1.36442881 87.98409075 2.82345753 86.09049495 4.44921875 83.33203125 C4.92617188 82.54441406 5.403125 81.75679688 5.89453125 80.9453125 C9.54449481 73.47585155 10.79115951 66.78283294 10.79296875 58.5 C10.80058228 57.52017654 10.8081958 56.54035309 10.81604004 55.53083801 C10.82678499 53.46939627 10.82971713 51.40790034 10.82519531 49.34643555 C10.82422448 46.22545668 10.86588161 43.10695222 10.91015625 39.98632812 C10.99562764 25.8460088 9.96040838 14.70103846 -0.296875 3.99609375 C-7.88691742 -2.31024692 -16.63384664 -5.37888655 -26.4765625 -5.19140625 C-36.11965445 -4.26649157 -44.44496757 0.26394053 -50.98828125 7.33203125 Z " fill="#E1B28D" transform="translate(292.67578125,34.98046875)"/>
<path d="M0 0 C2.97 0 5.94 0 9 0 C9 0.66 9 1.32 9 2 C8.34 2 7.68 2 7 2 C10.3 9.59 13.6 17.18 17 25 C21.54056676 16.87819872 21.54056676 16.87819872 21.48828125 8.04296875 C20.70291844 5.86676351 20.70291844 5.86676351 19 3 C18.01 2.67 17.02 2.34 16 2 C16 1.34 16 0.68 16 0 C18.97 0 21.94 0 25 0 C25 0.66 25 1.32 25 2 C24.34 2 23.68 2 23 2 C23.23710693 2.51908936 23.47421387 3.03817871 23.71850586 3.57299805 C24.79694084 5.9420668 25.86727546 8.31471158 26.9375 10.6875 C27.31068359 11.50412109 27.68386719 12.32074219 28.06835938 13.16210938 C29.82856215 17.07895698 31.44798642 20.6977989 32 25 C34.62144728 22.69195115 35.78384259 20.572733 37.04296875 17.33203125 C37.39423828 16.43935547 37.74550781 15.54667969 38.10742188 14.62695312 C38.46384766 13.69818359 38.82027344 12.76941406 39.1875 11.8125 C39.73954102 10.40194336 39.73954102 10.40194336 40.30273438 8.96289062 C41.2088805 6.64456873 42.10765118 4.32365984 43 2 C42.34 2 41.68 2 41 2 C41 1.34 41 0.68 41 0 C43.31 0 45.62 0 48 0 C48 0.66 48 1.32 48 2 C47.01 2.66 46.02 3.32 45 4 C43.97157793 5.83730577 43.97157793 5.83730577 43.2109375 7.9921875 C42.90929687 8.77980469 42.60765625 9.56742188 42.296875 10.37890625 C41.99265625 11.20261719 41.6884375 12.02632812 41.375 12.875 C41.06304687 13.69097656 40.75109375 14.50695312 40.4296875 15.34765625 C39.0946618 18.87511639 37.85844201 22.3228859 37 26 C37.598125 26.103125 38.19625 26.20625 38.8125 26.3125 C41.38757109 27.12180806 42.48151913 27.76223872 44 30 C43.92041617 33.10376922 43.31819867 34.60737777 41.36328125 37.01953125 C38.45066771 39.46034954 35.89700095 40.22883973 32.25 41.25 C31.07953125 41.58515625 29.9090625 41.9203125 28.703125 42.265625 C27.81109375 42.50796875 26.9190625 42.7503125 26 43 C31.88637261 50.46708987 31.88637261 50.46708987 40 55 C43.75073204 55.25144312 43.75073204 55.25144312 47 55 C47.33 54.01 47.66 53.02 48 52 C48.66 52 49.32 52 50 52 C49.25 56.75 49.25 56.75 47 59 C41.68229539 59.74447865 38.38307865 58.69173118 34.06640625 55.77734375 C30.10987127 52.37427491 27.06533277 48.19852759 24 44 C22.5393715 46.64738916 22 47.89448334 22 51 C20.02 51.495 20.02 51.495 18 52 C19 46 19 46 20 40 C20.99 40 21.98 40 23 40 C23.2475 38.948125 23.495 37.89625 23.75 36.8125 C24.76700786 33.1866459 26.45373429 30.80089228 29 28 C27.55989519 28.25662245 26.1229313 28.53090821 24.6875 28.8125 C23.88699219 28.96332031 23.08648437 29.11414063 22.26171875 29.26953125 C19.74569185 30.08213407 18.77405234 31.10108767 17 33 C16.34 33 15.68 33 15 33 C15.99 34.98 16.98 36.96 18 39 C16.68 38.34 15.36 37.68 14 37 C14.04745361 35.98019043 14.09490723 34.96038086 14.14379883 33.90966797 C13.99439197 29.8475264 13.2199306 27.19120603 11.69921875 23.4453125 C11.21646484 22.25421875 10.73371094 21.063125 10.23632812 19.8359375 C9.98181885 19.22717773 9.72730957 18.61841797 9.46508789 17.99121094 C8.68353436 16.11548246 7.92769836 14.23075007 7.17382812 12.34375 C5.25525012 7.59200022 5.25525012 7.59200022 3 3 C2.01 2.67 1.02 2.34 0 2 C0 1.34 0 0.68 0 0 Z " fill="#B36635" transform="translate(210,159)"/>
<path d="M0 0 C2.97 0 5.94 0 9 0 C9 0.66 9 1.32 9 2 C8.01 2 7.02 2 6 2 C6.33 5.63 6.66 9.26 7 13 C8.65189143 11.40207236 10.2963339 9.79644124 11.9375 8.1875 C12.85402344 7.29417969 13.77054688 6.40085938 14.71484375 5.48046875 C17.17935108 3.14563407 17.17935108 3.14563407 18 0 C20.31 0 22.62 0 25 0 C25 0.66 25 1.32 25 2 C23.94232422 2.33644531 23.94232422 2.33644531 22.86328125 2.6796875 C19.39956216 4.27687311 16.9147492 6.52519235 14.1875 9.125 C13.68541016 9.59292969 13.18332031 10.06085938 12.66601562 10.54296875 C11.43810545 11.68901825 10.21821785 12.84365311 9 14 C12.26016864 17.29509902 15.57056539 20.5063579 19 23.625 C20.2375 24.75808594 20.2375 24.75808594 21.5 25.9140625 C23.94901637 28.07368977 23.94901637 28.07368977 26.8125 29.6484375 C27.534375 30.09445313 28.25625 30.54046875 29 31 C29 31.66 29 32.32 29 33 C23.42382833 33.12122112 20.98942005 31.44467999 16.875 27.6875 C16.06804687 26.90761719 15.26109375 26.12773437 14.4296875 25.32421875 C12.05683999 23.05437266 9.59083354 21.01458053 7 19 C7 22.63 7 26.26 7 30 C7.66 30.33 8.32 30.66 9 31 C9 31.66 9 32.32 9 33 C6.03 33 3.06 33 0 33 C0 32.34 0 31.68 0 31 C0.66 31 1.32 31 2 31 C2 21.43 2 11.86 2 2 C1.34 2 0.68 2 0 2 C0 1.34 0 0.68 0 0 Z " fill="#DCAC89" transform="translate(106,159)"/>
<path d="M0 0 C2.97 0 5.94 0 9 0 C9 0.66 9 1.32 9 2 C8.34 2 7.68 2 7 2 C10.3 9.59 13.6 17.18 17 25 C21.54056676 16.87819872 21.54056676 16.87819872 21.48828125 8.04296875 C20.70291844 5.86676351 20.70291844 5.86676351 19 3 C18.01 2.67 17.02 2.34 16 2 C16 1.34 16 0.68 16 0 C18.97 0 21.94 0 25 0 C25 0.66 25 1.32 25 2 C24.34 2 23.68 2 23 2 C23.23710693 2.51908936 23.47421387 3.03817871 23.71850586 3.57299805 C24.79694084 5.9420668 25.86727546 8.31471158 26.9375 10.6875 C27.31068359 11.50412109 27.68386719 12.32074219 28.06835938 13.16210938 C29.82856215 17.07895698 31.44798642 20.6977989 32 25 C30.25 24.9375 30.25 24.9375 28 24 C26.48621181 21.75598793 25.28885045 19.38545639 24 17 C23.60167969 18.07121094 23.20335937 19.14242187 22.79296875 20.24609375 C22.25840706 21.64345676 21.7232182 23.04057996 21.1875 24.4375 C20.92646484 25.14455078 20.66542969 25.85160156 20.39648438 26.58007812 C19.68264671 28.42195557 18.84775525 30.21579492 18 32 C16.515 32.495 16.515 32.495 15 33 C15.99 34.98 16.98 36.96 18 39 C16.68 38.34 15.36 37.68 14 37 C14.04745361 35.98019043 14.09490723 34.96038086 14.14379883 33.90966797 C13.99439197 29.8475264 13.2199306 27.19120603 11.69921875 23.4453125 C11.21646484 22.25421875 10.73371094 21.063125 10.23632812 19.8359375 C9.98181885 19.22717773 9.72730957 18.61841797 9.46508789 17.99121094 C8.68353436 16.11548246 7.92769836 14.23075007 7.17382812 12.34375 C5.25525012 7.59200022 5.25525012 7.59200022 3 3 C2.01 2.67 1.02 2.34 0 2 C0 1.34 0 0.68 0 0 Z " fill="#DFAE89" transform="translate(210,159)"/>
<path d="M0 0 C2.97 0 5.94 0 9 0 C9 0.66 9 1.32 9 2 C8.01 2.495 8.01 2.495 7 3 C6.53045739 6.04581269 6.53045739 6.04581269 6.375 9.5625 C6.189375 12.7490625 6.189375 12.7490625 6 16 C12.6 16 19.2 16 26 16 C26 11.38 26 6.76 26 2 C25.01 2 24.02 2 23 2 C23 1.34 23 0.68 23 0 C25.97 0 28.94 0 32 0 C32 0.66 32 1.32 32 2 C31.01 2.495 31.01 2.495 30 3 C30 11.91 30 20.82 30 30 C30.66 30.33 31.32 30.66 32 31 C32 31.66 32 32.32 32 33 C29.03 33 26.06 33 23 33 C23 32.34 23 31.68 23 31 C23.66 30.67 24.32 30.34 25 30 C25.46954261 26.95418731 25.46954261 26.95418731 25.625 23.4375 C25.74875 21.313125 25.8725 19.18875 26 17 C19.4 17 12.8 17 6 17 C6.12375 19.124375 6.2475 21.24875 6.375 23.4375 C6.47941406 25.22994141 6.47941406 25.22994141 6.5859375 27.05859375 C6.72257813 28.02925781 6.85921875 28.99992187 7 30 C7.66 30.33 8.32 30.66 9 31 C9 31.66 9 32.32 9 33 C6.03 33 3.06 33 0 33 C0 32.34 0 31.68 0 31 C0.66 30.67 1.32 30.34 2 30 C2 21.09 2 12.18 2 3 C1.34 2.67 0.68 2.34 0 2 C0 1.34 0 0.68 0 0 Z " fill="#E5B691" transform="translate(174,159)"/>
<path d="M0 0 C7.92 0 15.84 0 24 0 C24 2.31 24 4.62 24 7 C23.66355469 6.35546875 23.32710938 5.7109375 22.98046875 5.046875 C20.12831901 2.09909105 17.19551133 2.32976307 13.3125 2.25 C12.61060547 2.22035156 11.90871094 2.19070312 11.18554688 2.16015625 C9.45764576 2.08962967 7.7288168 2.04252932 6 2 C6 5.96 6 9.92 6 14 C8.64 14.33 11.28 14.66 14 15 C14.33 13.02 14.66 11.04 15 9 C15.66 9 16.32 9 17 9 C17 13.62 17 18.24 17 23 C16.34 23 15.68 23 15 23 C14.979375 22.401875 14.95875 21.80375 14.9375 21.1875 C14.09543384 18.56685398 14.09543384 18.56685398 10.4375 17.25 C9.303125 16.8375 8.16875 16.425 7 16 C6.67 20.95 6.34 25.9 6 31 C11.28 30.67 16.56 30.34 22 30 C22.66 28.35 23.32 26.7 24 25 C24.66 25 25.32 25 26 25 C26 27.64 26 30.28 26 33 C17.42 33 8.84 33 0 33 C0 32.34 0 31.68 0 31 C0.66 30.67 1.32 30.34 2 30 C2 21.09 2 12.18 2 3 C1.34 2.67 0.68 2.34 0 2 C0 1.34 0 0.68 0 0 Z " fill="#E3B38E" transform="translate(405,159)"/>
<path d="M0 0 C7.92 0 15.84 0 24 0 C24 2.64 24 5.28 24 8 C23.34 8 22.68 8 22 8 C21.67 6.35 21.34 4.7 21 3 C16.05 2.67 11.1 2.34 6 2 C6 5.96 6 9.92 6 14 C8.31 14 10.62 14 13 14 C13.33 12.68 13.66 11.36 14 10 C14.66 10 15.32 10 16 10 C16 14.29 16 18.58 16 23 C15.34 23 14.68 23 14 23 C14 21.35 14 19.7 14 18 C11.36 17.34 8.72 16.68 6 16 C6 20.95 6 25.9 6 31 C6.99 31 7.98 31 9 31 C9 31.66 9 32.32 9 33 C6.03 33 3.06 33 0 33 C0 32.34 0 31.68 0 31 C0.66 31 1.32 31 2 31 C2 21.43 2 11.86 2 2 C1.34 2 0.68 2 0 2 C0 1.34 0 0.68 0 0 Z " fill="#D9AA87" transform="translate(376,159)"/>
<path d="M0 0 C1.914962 0.96429581 3.77960736 2.02724031 5.6328125 3.10546875 C5.6328125 5.74546875 5.6328125 8.38546875 5.6328125 11.10546875 C4.9728125 11.10546875 4.3128125 11.10546875 3.6328125 11.10546875 C3.2409375 9.99171875 2.8490625 8.87796875 2.4453125 7.73046875 C1.29789486 5.08873976 0.87698605 4.26146852 -1.6171875 2.66796875 C-6.6171039 1.64525858 -10.0205375 1.444848 -14.6796875 3.73046875 C-18.35632623 6.97959135 -19.06617925 9.48575632 -19.6171875 14.28125 C-19.83632848 18.35590254 -19.54067115 20.74515655 -17.7421875 24.48046875 C-14.12554895 28.4778061 -11.15786706 29.91697616 -5.8046875 30.48046875 C-2.08179138 30.07433463 -0.30222882 29.38827866 2.6328125 27.10546875 C3.65081826 25.78583166 4.65529615 24.45537229 5.6328125 23.10546875 C6.2928125 23.10546875 6.9528125 23.10546875 7.6328125 23.10546875 C6.27999081 27.53288519 4.39982362 29.46856096 0.6328125 32.10546875 C-3.87536793 34.35955896 -9.50175666 33.80377446 -14.3671875 33.10546875 C-18.60496676 30.8156489 -21.317788 27.76701796 -23.8671875 23.73046875 C-25.11939003 17.15640545 -24.96455265 11.76317268 -21.64453125 5.83203125 C-16.68205688 -0.87565582 -7.61802282 -2.8787578 0 0 Z " fill="#DEAF8B" transform="translate(329.3671875,158.89453125)"/>
<path d="M0 0 C-0.33 3.63 -0.66 7.26 -1 11 C2.44956975 8.33442338 4.76358786 6.35799552 7.1875 2.6875 C7.785625 1.800625 8.38375 0.91375 9 0 C9.99 0 10.98 0 12 0 C11.731875 0.515625 11.46375 1.03125 11.1875 1.5625 C9.67650593 4.66401415 8.34427274 7.82262806 7 11 C10.41725591 9.29137204 11.97028958 8.04456564 14.125 4.8125 C14.74375 3.884375 15.3625 2.95625 16 2 C16.99 2 17.98 2 19 2 C18.34 5.3 17.68 8.6 17 12 C18.32 11.67 19.64 11.34 21 11 C20.67 11.66 20.34 12.32 20 13 C15.25 12.25 15.25 12.25 13 10 C12.608125 10.515625 12.21625 11.03125 11.8125 11.5625 C10 13 10 13 7.375 12.8125 C5 12 5 12 4 10 C3.443125 10.515625 2.88625 11.03125 2.3125 11.5625 C0 13 0 13 -2.75 12.6875 C-3.4925 12.460625 -4.235 12.23375 -5 12 C-5.33 11.01 -5.66 10.02 -6 9 C-6.7425 9.680625 -7.485 10.36125 -8.25 11.0625 C-11 13 -11 13 -13.3125 12.75 C-13.869375 12.5025 -14.42625 12.255 -15 12 C-15.33 10.35 -15.66 8.7 -16 7 C-14.87720538 6.01830524 -13.75168527 5.03972702 -12.625 4.0625 C-11.68527344 3.24458984 -11.68527344 3.24458984 -10.7265625 2.41015625 C-7.22422589 -0.45034945 -4.42923976 -0.08202296 0 0 Z " fill="#BB6C37" transform="translate(259,197)"/>
<path d="M0 0 C1.98 0 3.96 0 6 0 C7.60447457 3.6873661 9.20852408 7.37491697 10.8125 11.0625 C11.49022461 12.62000977 11.49022461 12.62000977 12.18164062 14.20898438 C12.62314453 15.22412109 13.06464844 16.23925781 13.51953125 17.28515625 C13.94959473 18.27016113 14.3796582 19.25516602 14.82275391 20.27001953 C15.81193923 22.56389557 16.75943593 24.86932681 17.69921875 27.18359375 C18.6938016 30.10710455 18.6938016 30.10710455 21 31 C21 31.66 21 32.32 21 33 C18.03 33 15.06 33 12 33 C12 32.34 12 31.68 12 31 C12.66 31 13.32 31 14 31 C10.7 23.08 7.4 15.16 4 7 C2.68 10.17625 1.36 13.3525 0 16.625 C-0.62648438 18.1092749 -0.62648438 18.1092749 -1.265625 19.62353516 C-3.14099226 24.22544084 -4.53892739 27.93071422 -4 33 C-6.31 33 -8.62 33 -11 33 C-11 32.34 -11 31.68 -11 31 C-10.01 31 -9.02 31 -8 31 C-7.83201904 30.472854 -7.66403809 29.94570801 -7.4909668 29.40258789 C-5.50912112 23.30842901 -3.22116971 17.37423926 -0.8125 11.4375 C-0.44447266 10.52419922 -0.07644531 9.61089844 0.30273438 8.66992188 C1.19943546 6.44563736 2.09855598 4.22236555 3 2 C2.01 2 1.02 2 0 2 C0 1.34 0 0.68 0 0 Z " fill="#DFB08C" transform="translate(267,159)"/>
<path d="M0 0 C1.98 0 3.96 0 6 0 C9.80105058 7.29836424 12.81555017 14.82813353 15.8203125 22.48242188 C16.201875 23.43568359 16.5834375 24.38894531 16.9765625 25.37109375 C17.31768066 26.23661865 17.65879883 27.10214355 18.01025391 27.99389648 C18.83142268 30.16748117 18.83142268 30.16748117 21 31 C21 31.66 21 32.32 21 33 C18.03 33 15.06 33 12 33 C12 32.34 12 31.68 12 31 C12.66 31 13.32 31 14 31 C13.06460476 28.47836818 12.12674545 25.95769759 11.1875 23.4375 C10.92646484 22.73302734 10.66542969 22.02855469 10.39648438 21.30273438 C8.71921959 16.8093213 6.92278185 12.39410506 5 8 C2.76249789 10.23750211 2.15470585 11.84385209 1.0546875 14.7890625 C0.70019531 15.73007813 0.34570312 16.67109375 -0.01953125 17.640625 C-0.38433594 18.62546875 -0.74914062 19.6103125 -1.125 20.625 C-1.49753906 21.61757812 -1.87007813 22.61015625 -2.25390625 23.6328125 C-3.17413947 26.08676775 -4.08927676 28.54250288 -5 31 C-4.34 31 -3.68 31 -3 31 C-3 31.66 -3 32.32 -3 33 C-5.31 33 -7.62 33 -10 33 C-10 32.34 -10 31.68 -10 31 C-9.55615967 30.58709717 -9.11231934 30.17419434 -8.6550293 29.7487793 C-6.43582626 27.40386835 -5.65295259 25.03708158 -4.51953125 22.01953125 C-4.07802734 20.85615234 -3.63652344 19.69277344 -3.18164062 18.49414062 C-2.72982422 17.27919922 -2.27800781 16.06425781 -1.8125 14.8125 C-1.34908203 13.58595703 -0.88566406 12.35941406 -0.40820312 11.09570312 C0.73513305 8.0664516 1.87086588 5.03456773 3 2 C2.01 2 1.02 2 0 2 C0 1.34 0 0.68 0 0 Z " fill="#DEAE8B" transform="translate(350,159)"/>
<path d="M0 0 C2.31 0 4.62 0 7 0 C8.71348735 4.09155867 10.42236208 8.18500311 12.12695312 12.28027344 C12.7077131 13.67370761 13.28973926 15.06661475 13.87304688 16.45898438 C14.71035383 18.45826832 15.54311689 20.45939176 16.375 22.4609375 C17.12910156 24.26763916 17.12910156 24.26763916 17.8984375 26.11083984 C19 29 19 29 19 31 C19.99 31 20.98 31 22 31 C22 31.66 22 32.32 22 33 C19.03 33 16.06 33 13 33 C13 32.34 13 31.68 13 31 C13.66 31 14.32 31 15 31 C11.7 23.08 8.4 15.16 5 7 C1.7 14.92 -1.6 22.84 -5 31 C-4.34 31 -3.68 31 -3 31 C-3 31.66 -3 32.32 -3 33 C-5.31 33 -7.62 33 -10 33 C-10 32.34 -10 31.68 -10 31 C-9.01 30.34 -8.02 29.68 -7 29 C-5.65839789 26.31505414 -5.65839789 26.31505414 -4.51953125 23.1171875 C-3.85727539 21.36728516 -3.85727539 21.36728516 -3.18164062 19.58203125 C-2.72982422 18.35871094 -2.27800781 17.13539063 -1.8125 15.875 C-1.34908203 14.64394531 -0.88566406 13.41289062 -0.40820312 12.14453125 C0.73662879 9.09951439 1.87226111 6.05137989 3 3 C2.01 2.67 1.02 2.34 0 2 C0 1.34 0 0.68 0 0 Z " fill="#DEAF8B" transform="translate(148,159)"/>
<path d="M0 0 C2.375 -0.125 2.375 -0.125 5 0 C7 2 7 2 7 4.375 C5.52434185 8.24860264 3.6753145 9.13010315 0 11 C-3.30719108 11.8723887 -6.61893145 12.49217152 -10 13 C-8.76067171 9.56801397 -7.49698489 6.69674368 -5 4 C-4.01 4 -3.02 4 -2 4 C-1.34 2.68 -0.68 1.36 0 0 Z " fill="#4B1813" transform="translate(245,187)"/>
<path d="M0 0 C1.94268841 2.91403262 3.46395304 5.85808576 5 9 C6.98 9 8.96 9 11 9 C11.33 9.66 11.66 10.32 12 11 C11.06421005 13.35981813 10.06652192 15.69631264 9 18 C6.48916886 16.74458443 6.12874554 15.49936512 5 13 C3.54096742 13.30921884 2.08279278 13.62248799 0.625 13.9375 C-0.18710938 14.11152344 -0.99921875 14.28554687 -1.8359375 14.46484375 C-4.029463 14.92330693 -4.029463 14.92330693 -6 16 C-4.25192871 10.53262809 -2.34205919 5.24175152 0 0 Z " fill="#BD7342" transform="translate(234,174)"/>
<path d="M0 0 C-0.268125 0.515625 -0.53625 1.03125 -0.8125 1.5625 C-2.32349407 4.66401415 -3.65572726 7.82262806 -5 11 C-1.58274409 9.29137204 -0.02971042 8.04456564 2.125 4.8125 C2.74375 3.884375 3.3625 2.95625 4 2 C4.99 2 5.98 2 7 2 C6.34 5.3 5.68 8.6 5 12 C6.32 11.67 7.64 11.34 9 11 C8.67 11.66 8.34 12.32 8 13 C3.25 12.25 3.25 12.25 1 10 C0.608125 10.515625 0.21625 11.03125 -0.1875 11.5625 C-0.785625 12.036875 -1.38375 12.51125 -2 13 C-4.6875 12.6875 -4.6875 12.6875 -7 12 C-7.8125 9.9375 -7.8125 9.9375 -8 7 C-4.51446281 0 -4.51446281 0 0 0 Z " fill="#B86A36" transform="translate(271,197)"/>
<path d="M0 0 C0.99 0.33 1.98 0.66 3 1 C2.68546875 1.67804688 2.3709375 2.35609375 2.046875 3.0546875 C-4.2185404 15.01116341 -4.2185404 15.01116341 -6 28 C-8.31 28 -10.62 28 -13 28 C-13 27.34 -13 26.68 -13 26 C-12.01 26 -11.02 26 -10 26 C-9.4740625 24.2984375 -9.4740625 24.2984375 -8.9375 22.5625 C-6.39343634 14.88090974 -3.12550716 7.45840203 0 0 Z " fill="#D0A080" transform="translate(269,164)"/>
<path d="M0 0 C0.53109375 0.40992188 1.0621875 0.81984375 1.609375 1.2421875 C2.31578125 1.78101563 3.0221875 2.31984375 3.75 2.875 C4.44609375 3.40867188 5.1421875 3.94234375 5.859375 4.4921875 C10.43112851 7.71243724 13.34526948 8.21748964 19 8 C19.33 7.01 19.66 6.02 20 5 C20.66 5 21.32 5 22 5 C21.25 9.75 21.25 9.75 19 12 C13.45617669 12.77613526 10.25728388 11.48349791 5.80078125 8.4375 C3.42786133 6.54328193 1.65064985 4.54475185 0 2 C0 1.34 0 0.68 0 0 Z " fill="#BE6E38" transform="translate(238,206)"/>
<path d="M0 0 C0.66 0 1.32 0 2 0 C1.37658609 3.5382203 0.44678155 6.73293028 -0.84765625 10.08203125 C-1.20537109 11.01337891 -1.56308594 11.94472656 -1.93164062 12.90429688 C-2.30482422 13.86400391 -2.67800781 14.82371094 -3.0625 15.8125 C-3.43955078 16.79154297 -3.81660156 17.77058594 -4.20507812 18.77929688 C-5.13315595 21.1876001 -6.06490116 23.59441614 -7 26 C-6.34 26 -5.68 26 -5 26 C-5 26.66 -5 27.32 -5 28 C-7.31 28 -9.62 28 -12 28 C-12 27.34 -12 26.68 -12 26 C-11.55164795 25.57356201 -11.1032959 25.14712402 -10.64135742 24.70776367 C-8.55923011 22.54139739 -7.80708934 20.47946624 -6.73828125 17.67578125 C-6.34189453 16.64775391 -5.94550781 15.61972656 -5.53710938 14.56054688 C-5.13298828 13.48869141 -4.72886719 12.41683594 -4.3125 11.3125 C-3.89677734 10.22904297 -3.48105469 9.14558594 -3.05273438 8.02929688 C-2.02797944 5.35551101 -1.01072874 2.67911259 0 0 Z " fill="#D5A584" transform="translate(352,164)"/>
<path d="M0 0 C1.35375421 3.67501142 0.63213623 5.66126807 -0.87109375 9.203125 C-1.28037109 10.1828125 -1.68964844 11.1625 -2.11132812 12.171875 C-2.54896484 13.18765625 -2.98660156 14.2034375 -3.4375 15.25 C-3.87126953 16.28125 -4.30503906 17.3125 -4.75195312 18.375 C-5.82461987 20.92111007 -6.90758009 23.46231711 -8 26 C-7.34 26 -6.68 26 -6 26 C-6 26.66 -6 27.32 -6 28 C-8.31 28 -10.62 28 -13 28 C-13 27.34 -13 26.68 -13 26 C-12.01 25.34 -11.02 24.68 -10 24 C-8.7740538 21.62443648 -8.7740538 21.62443648 -7.7734375 18.80859375 C-7.3815625 17.78185547 -6.9896875 16.75511719 -6.5859375 15.69726562 C-6.18632812 14.62154297 -5.78671875 13.54582031 -5.375 12.4375 C-4.57241753 10.31040247 -3.76783861 8.18405679 -2.9609375 6.05859375 C-2.60821777 5.11298584 -2.25549805 4.16737793 -1.89208984 3.19311523 C-1 1 -1 1 0 0 Z " fill="#D7A886" transform="translate(151,164)"/>
<path d="M0 0 C1.134375 0.66 2.26875 1.32 3.4375 2 C3.4375 4.64 3.4375 7.28 3.4375 10 C2.7775 10 2.1175 10 1.4375 10 C1.045625 8.88625 0.65375 7.7725 0.25 6.625 C-0.89741764 3.98327101 -1.31832645 3.15599977 -3.8125 1.5625 C-8.87272512 0.52745395 -13.56191463 0.78773688 -18.5625 2 C-18.5625 1.34 -18.5625 0.68 -18.5625 0 C-12.39371093 -3.18389113 -6.14236893 -3.07118446 0 0 Z " fill="#CE9E7E" transform="translate(331.5625,160)"/>
<path d="M0 0 C2.31 0 4.62 0 7 0 C7 0.66 7 1.32 7 2 C6.01 2.66 5.02 3.32 4 4 C2.88980493 6.08280064 2.88980493 6.08280064 2.02734375 8.53515625 C1.68509766 9.42654297 1.34285156 10.31792969 0.99023438 11.23632812 C0.64283203 12.16896484 0.29542969 13.10160156 -0.0625 14.0625 C-0.75544104 15.90991895 -1.45435861 17.7551108 -2.16015625 19.59765625 C-2.46574463 20.41758057 -2.77133301 21.23750488 -3.08618164 22.08227539 C-4 24 -4 24 -6 25 C-5.38696372 19.59491957 -3.55619307 15.07560955 -1.4375 10.125 C-1.10814453 9.34125 -0.77878906 8.5575 -0.43945312 7.75 C0.36796786 5.83091244 1.18319769 3.9151135 2 2 C1.34 2 0.68 2 0 2 C0 1.34 0 0.68 0 0 Z " fill="#D8A986" transform="translate(251,159)"/>
<path d="M0 0 C0.8971875 0.309375 0.8971875 0.309375 1.8125 0.625 C0.59320272 1.92598717 -0.63842452 3.21542437 -1.875 4.5 C-2.55949219 5.21929687 -3.24398437 5.93859375 -3.94921875 6.6796875 C-6.28341291 8.70835887 -8.27217634 9.65492733 -11.1875 10.625 C-10.71384425 6.36209821 -8.26511678 4.40951042 -5.1875 1.625 C-2.1875 -0.375 -2.1875 -0.375 0 0 Z " fill="#541E15" transform="translate(256.1875,198.375)"/>
<path d="M0 0 C0.66 0 1.32 0 2 0 C2 4.62 2 9.24 2 14 C1.34 14 0.68 14 0 14 C-0.020625 13.401875 -0.04125 12.80375 -0.0625 12.1875 C-0.90456616 9.56685398 -0.90456616 9.56685398 -4.5625 8.25 C-5.696875 7.8375 -6.83125 7.425 -8 7 C-8 6.34 -8 5.68 -8 5 C-5.69 5.33 -3.38 5.66 -1 6 C-0.67 4.02 -0.34 2.04 0 0 Z " fill="#C9997A" transform="translate(420,168)"/>
<path d="M0 0 C4 6 4 6 4 10 C1.36 10.66 -1.28 11.32 -4 12 C-3.33501617 7.61110675 -1.81242323 4.0188515 0 0 Z " fill="#521F19" transform="translate(234,174)"/>
<path d="M0 0 C-0.66 3.3 -1.32 6.6 -2 10 C-0.68 9.67 0.64 9.34 2 9 C1.67 9.66 1.34 10.32 1 11 C-0.65 10.67 -2.3 10.34 -4 10 C-5.1875 7.25 -5.1875 7.25 -6 4 C-4.31793196 0.63586391 -3.84181112 0 0 0 Z " fill="#C2713A" transform="translate(278,199)"/>
<path d="M0 0 C1.65 0.33 3.3 0.66 5 1 C4.67 2.65 4.34 4.3 4 6 C2.35 5.67 0.7 5.34 -1 5 C-0.67 3.35 -0.34 1.7 0 0 Z " fill="#BF6F39" transform="translate(245,70)"/>
<path d="M0 0 C0.66 0 1.32 0 2 0 C0.64908907 4.42116304 -1.13117725 6.48076658 -5 9 C-7.8125 9.75 -7.8125 9.75 -10 10 C-8 7 -8 7 -5.5625 5.5625 C-2.93002703 3.95733355 -1.7790354 2.45676317 0 0 Z " fill="#D7A785" transform="translate(335,182)"/>
<path d="M0 0 C0.33 0.66 0.66 1.32 1 2 C1.928125 2.2165625 1.928125 2.2165625 2.875 2.4375 C5.47024652 3.12447702 6.49114412 3.77642291 8 6 C7.75546876 9.34192692 7.39456443 10.60543557 5 13 C5 12.01 5 11.02 5 10 C4.68911632 8.32900023 4.35919668 6.66128463 4 5 C2.35 4.67 0.7 4.34 -1 4 C-0.67 2.68 -0.34 1.36 0 0 Z " fill="#AB6135" transform="translate(246,183)"/>
<path d="M0 0 C-0.57323431 3.86933162 -2.38953552 6.15222057 -5 9 C-5.66 9 -6.32 9 -7 9 C-6.53149863 4.78348764 -4.94559315 0 0 0 Z " fill="#C0713B" transform="translate(241,188)"/>
<path d="M0 0 C1.65 0 3.3 0 5 0 C5.33 1.32 5.66 2.64 6 4 C4.02 4.99 4.02 4.99 2 6 C1.34 5.34 0.68 4.68 0 4 C0 2.68 0 1.36 0 0 Z " fill="#C3723A" transform="translate(287,87)"/>
<path d="M0 0 C0.66 0 1.32 0 2 0 C1.25 4.75 1.25 4.75 -1 7 C-4.625 7.125 -4.625 7.125 -8 7 C-6 4 -6 4 -3.375 3.3125 C-2.59125 3.209375 -1.8075 3.10625 -1 3 C-0.67 2.01 -0.34 1.02 0 0 Z " fill="#A75D31" transform="translate(258,211)"/>
<path d="M0 0 C1.32 0.33 2.64 0.66 4 1 C3.63118644 7.14689273 2.09949571 9.69027374 -2 14 C-2.66 13.67 -3.32 13.34 -4 13 C-3.360625 12.29875 -2.72125 11.5975 -2.0625 10.875 C0.18239338 7.74575469 0.74634988 5.80475182 1 2 C0.67 1.34 0.34 0.68 0 0 Z " fill="#B66836" transform="translate(284,194)"/>
<path d="M0 0 C1.66611905 -0.042721 3.33382885 -0.04063832 5 0 C6 1 6 1 6.09765625 2.84765625 C6.06510417 4.8984375 6.03255208 6.94921875 6 9 C5.34 9 4.68 9 4 9 C3.525625 7.88625 3.05125 6.7725 2.5625 5.625 C1.74693537 3.73289006 0.92143645 1.84287291 0 0 Z " fill="#D5A584" transform="translate(329,161)"/>
<path d="M0 0 C2.31 0 4.62 0 7 0 C7 0.66 7 1.32 7 2 C6.236875 2.28875 5.47375 2.5775 4.6875 2.875 C1.84970692 3.96269013 1.84970692 3.96269013 -1 6 C-1 3 -1 3 0 0 Z " fill="#DDAD8A" transform="translate(124,159)"/>
<path d="M0 0 C1.65 0 3.3 0 5 0 C4.34 1.98 3.68 3.96 3 6 C2.34 5.67 1.68 5.34 1 5 C0.375 2.4375 0.375 2.4375 0 0 Z " fill="#E3B48F" transform="translate(240,186)"/>
<path d="M0 0 C0.66 0 1.32 0 2 0 C2 2.31 2 4.62 2 7 C0.68 7 -0.64 7 -2 7 C-1.34 4.69 -0.68 2.38 0 0 Z " fill="#E1B28D" transform="translate(429,184)"/>
</svg>
